<svg viewBox="0 0 280 160" xmlns="http://www.w3.org/2000/svg">
<defs>
	<marker id="arrow" viewBox="0 0 10 10" refX="5" refY="5" markerWidth="6" markerHeight="6" orient="auto-start-reverse">
		<path d="M 0 0 L 10 5 L 0 10 z" />
	</marker>
</defs>
<text x="280" y="160" text-anchor="end">Treck Bar</text>
<text x="250" y="30" text-anchor="middle" dominant-baseline="central">2</text>
<line x1="20" y1="60" x2="40" y2="60" stroke="black" />
<line x1="20" y1="60" x2="20" y2="80" stroke="black" />
<line x1="20" y1="80" x2="20" y2="100" stroke="black" />
<line x1="20" y1="100" x2="20" y2="120" stroke="black" />
<line x1="20" y1="120" x2="20" y2="140" stroke="black" />
<line x1="40" y1="140" x2="60" y2="140" stroke="black" />
<line x1="20" y1="140" x2="40" y2="140" stroke="black" />
<line x1="40" y1="100" x2="60" y2="100" stroke="black" />
<line x1="60" y1="100" x2="80" y2="100" stroke="black" />
<line x1="80" y1="60" x2="100" y2="60" stroke="black" />
<line x1="100" y1="60" x2="120" y2="60" stroke="black" />
<line x1="40" y1="80" x2="40" y2="100" stroke="black" />
<line x1="40" y1="80" x2="60" y2="80" stroke="black" />
<line x1="60" y1="80" x2="80" y2="80" stroke="black" />
<line x1="80" y1="80" x2="80" y2="100" stroke="black" />
<line x1="40" y1="60" x2="60" y2="60" stroke="black" />
<line x1="60" y1="60" x2="80" y2="60" stroke="black" />
<line x1="120" y1="40" x2="120" y2="60" stroke="black" />
<line x1="120" y1="20" x2="120" y2="40" stroke="black" />
<line x1="120" y1="20" x2="140" y2="20" stroke="black" />
<line x1="140" y1="60" x2="160" y2="60" stroke="black" />
<line x1="160" y1="60" x2="180" y2="60" stroke="black" />
<line x1="140" y1="40" x2="140" y2="60" stroke="black" />
<line x1="60" y1="140" x2="80" y2="140" stroke="black" />
<line x1="80" y1="140" x2="100" y2="140" stroke="black" />
<line x1="100" y1="140" x2="120" y2="140" stroke="black" />
<line x1="120" y1="140" x2="140" y2="140" stroke="black" />
<line x1="140" y1="140" x2="160" y2="140" stroke="black" />
<line x1="140" y1="100" x2="160" y2="100" stroke="black" />
<line x1="140" y1="80" x2="140" y2="100" stroke="black" />
<line x1="140" y1="80" x2="160" y2="80" stroke="black" />
<line x1="160" y1="80" x2="180" y2="80" stroke="black" />
<line x1="180" y1="60" x2="200" y2="60" stroke="black" />
<line x1="200" y1="60" x2="220" y2="60" stroke="black" />
<line x1="220" y1="40" x2="220" y2="60" stroke="black" />
<line x1="200" y1="40" x2="220" y2="40" stroke="black" />
<line x1="180" y1="40" x2="200" y2="40" stroke="black" />
<line x1="160" y1="40" x2="180" y2="40" stroke="black" />
<line x1="140" y1="40" x2="160" y2="40" stroke="black" />
<line x1="200" y1="20" x2="220" y2="20" stroke="black" />
<line x1="180" y1="20" x2="200" y2="20" stroke="black" />
<line x1="160" y1="20" x2="180" y2="20" stroke="black" />
<line x1="140" y1="20" x2="160" y2="20" stroke="black" />
<line x1="220" y1="20" x2="240" y2="20" stroke="black" />
<line x1="240" y1="20" x2="260" y2="20" stroke="black" />
<line x1="260" y1="20" x2="260" y2="40" stroke="black" />
<line x1="260" y1="40" x2="260" y2="60" stroke="black" />
<line x1="240" y1="60" x2="260" y2="60" stroke="black" />
<line x1="200" y1="100" x2="220" y2="100" stroke="black" />
<line x1="220" y1="80" x2="220" y2="100" stroke="black" />
<line x1="200" y1="80" x2="220" y2="80" stroke="black" />
<line x1="180" y1="80" x2="200" y2="80" stroke="black" />
<line x1="180" y1="100" x2="200" y2="100" stroke="black" />
<line x1="160" y1="100" x2="180" y2="100" stroke="black" />
<line x1="240" y1="100" x2="260" y2="100" stroke="black" />
<line x1="240" y1="80" x2="240" y2="100" stroke="black" />
<line x1="240" y1="60" x2="240" y2="80" stroke="black" />
<line x1="260" y1="80" x2="260" y2="100" stroke="black" />
<line x1="260" y1="60" x2="260" y2="80" stroke="black" />
<line x1="260" y1="100" x2="260" y2="120" stroke="black" />
<line x1="260" y1="120" x2="260" y2="140" stroke="black" />
<line x1="220" y1="140" x2="240" y2="140" stroke="black" />
<line x1="240" y1="140" x2="260" y2="140" stroke="black" />
<line x1="200" y1="140" x2="220" y2="140" stroke="black" />
<line x1="180" y1="140" x2="200" y2="140" stroke="black" />
<line x1="160" y1="140" x2="180" y2="140" stroke="black" />
</svg>
