<svg viewBox="0 0 680 580" xmlns="http://www.w3.org/2000/svg">
<defs>
	<marker id="arrow" viewBox="0 0 10 10" refX="5" refY="5" markerWidth="6" markerHeight="6" orient="auto-start-reverse">
		<path d="M 0 0 L 10 5 L 0 10 z" />
	</marker>
</defs>
<text x="680" y="580" text-anchor="end">Past 4F-2</text>
<line x1="380" y1="520" x2="380" y2="540" stroke="black" />
<line x1="400" y1="520" x2="400" y2="540" stroke="black" />
<line x1="380" y1="540" x2="380" y2="560" stroke="black" />
<line x1="400" y1="540" x2="400" y2="560" stroke="black" />
<line x1="380" y1="560" x2="400" y2="560" stroke="black" />
<line x1="360" y1="520" x2="380" y2="520" stroke="black" />
<line x1="400" y1="520" x2="420" y2="520" stroke="black" />
<line x1="360" y1="500" x2="360" y2="520" stroke="black" />
<line x1="360" y1="480" x2="360" y2="500" stroke="black" />
<line x1="360" y1="460" x2="360" y2="480" stroke="black" />
<line x1="420" y1="460" x2="420" y2="480" stroke="black" />
<line x1="420" y1="500" x2="420" y2="520" stroke="black" />
<line x1="420" y1="480" x2="420" y2="500" stroke="black" />
<line x1="360" y1="400" x2="360" y2="420" stroke="black" />
<line x1="420" y1="400" x2="420" y2="420" stroke="black" />
<line x1="420" y1="420" x2="440" y2="420" stroke="black" />
<line x1="420" y1="460" x2="440" y2="460" stroke="black" />
<line x1="340" y1="460" x2="360" y2="460" stroke="black" />
<line x1="340" y1="420" x2="360" y2="420" stroke="black" />
<line x1="320" y1="420" x2="340" y2="420" stroke="black" />
<line x1="320" y1="460" x2="340" y2="460" stroke="black" />
<line x1="320" y1="400" x2="320" y2="420" stroke="black" />
<line x1="300" y1="400" x2="320" y2="400" stroke="black" />
<line x1="300" y1="460" x2="320" y2="460" stroke="black" />
<line x1="280" y1="460" x2="300" y2="460" stroke="black" />
<line x1="280" y1="440" x2="280" y2="460" stroke="black" />
<line x1="280" y1="400" x2="300" y2="400" stroke="black" />
<line x1="260" y1="400" x2="280" y2="400" stroke="black" />
<line x1="240" y1="400" x2="260" y2="400" stroke="black" />
<line x1="240" y1="440" x2="260" y2="440" stroke="black" />
<line x1="260" y1="440" x2="280" y2="440" stroke="black" />
<line x1="240" y1="380" x2="240" y2="400" stroke="black" />
<line x1="220" y1="380" x2="240" y2="380" stroke="black" />
<line x1="200" y1="380" x2="220" y2="380" stroke="black" />
<line x1="200" y1="440" x2="220" y2="440" stroke="black" />
<line x1="220" y1="440" x2="240" y2="440" stroke="black" />
<line x1="180" y1="440" x2="200" y2="440" stroke="black" />
<line x1="180" y1="420" x2="180" y2="440" stroke="black" />
<line x1="160" y1="420" x2="180" y2="420" stroke="black" />
<line x1="140" y1="420" x2="160" y2="420" stroke="black" />
<line x1="140" y1="400" x2="140" y2="420" stroke="black" />
<line x1="200" y1="360" x2="200" y2="380" stroke="black" />
<line x1="180" y1="360" x2="200" y2="360" stroke="black" />
<line x1="180" y1="340" x2="180" y2="360" stroke="black" />
<line x1="140" y1="340" x2="140" y2="360" stroke="black" />
<line x1="140" y1="380" x2="140" y2="400" stroke="black" />
<line x1="140" y1="360" x2="140" y2="380" stroke="black" />
<line x1="140" y1="320" x2="140" y2="340" stroke="black" />
<line x1="140" y1="300" x2="140" y2="320" stroke="black" />
<line x1="180" y1="300" x2="180" y2="320" stroke="black" />
<line x1="180" y1="320" x2="180" y2="340" stroke="black" />
<line x1="120" y1="300" x2="140" y2="300" stroke="black" />
<line x1="120" y1="280" x2="120" y2="300" stroke="black" />
<line x1="180" y1="280" x2="180" y2="300" stroke="black" />
<line x1="180" y1="280" x2="200" y2="280" stroke="black" />
<line x1="200" y1="280" x2="220" y2="280" stroke="black" />
<line x1="220" y1="260" x2="220" y2="280" stroke="black" />
<line x1="220" y1="240" x2="220" y2="260" stroke="black" />
<line x1="220" y1="220" x2="220" y2="240" stroke="black" />
<line x1="200" y1="220" x2="220" y2="220" stroke="black" />
<line x1="180" y1="220" x2="200" y2="220" stroke="black" />
<line x1="180" y1="200" x2="180" y2="220" stroke="black" />
<line x1="120" y1="200" x2="120" y2="220" stroke="black" />
<line x1="120" y1="220" x2="120" y2="240" stroke="black" />
<line x1="120" y1="240" x2="120" y2="260" stroke="black" />
<line x1="120" y1="260" x2="120" y2="280" stroke="black" />
<line x1="180" y1="180" x2="180" y2="200" stroke="black" />
<line x1="180" y1="160" x2="180" y2="180" stroke="black" />
<line x1="180" y1="140" x2="180" y2="160" stroke="black" />
<line x1="120" y1="180" x2="120" y2="200" stroke="black" />
<line x1="120" y1="160" x2="120" y2="180" stroke="black" />
<line x1="120" y1="140" x2="120" y2="160" stroke="black" />
<line x1="120" y1="140" x2="140" y2="140" stroke="black" />
<line x1="140" y1="120" x2="140" y2="140" stroke="black" />
<line x1="180" y1="120" x2="180" y2="140" stroke="black" />
<line x1="140" y1="100" x2="140" y2="120" stroke="black" />
<line x1="140" y1="80" x2="140" y2="100" stroke="black" />
<line x1="140" y1="80" x2="160" y2="80" stroke="black" />
<line x1="160" y1="80" x2="180" y2="80" stroke="black" />
<line x1="180" y1="120" x2="200" y2="120" stroke="black" />
<line x1="180" y1="80" x2="200" y2="80" stroke="black" />
<line x1="200" y1="120" x2="220" y2="120" stroke="black" />
<line x1="220" y1="120" x2="240" y2="120" stroke="black" />
<line x1="240" y1="100" x2="240" y2="120" stroke="black" />
<line x1="200" y1="60" x2="200" y2="80" stroke="black" />
<line x1="200" y1="60" x2="220" y2="60" stroke="black" />
<line x1="220" y1="60" x2="240" y2="60" stroke="black" />
<line x1="240" y1="60" x2="260" y2="60" stroke="black" />
<line x1="260" y1="40" x2="260" y2="60" stroke="black" />
<line x1="240" y1="100" x2="260" y2="100" stroke="black" />
<line x1="260" y1="100" x2="280" y2="100" stroke="black" />
<line x1="280" y1="100" x2="300" y2="100" stroke="black" />
<line x1="300" y1="80" x2="300" y2="100" stroke="black" />
<line x1="300" y1="80" x2="320" y2="80" stroke="black" />
<line x1="260" y1="40" x2="280" y2="40" stroke="black" />
<line x1="280" y1="40" x2="300" y2="40" stroke="black" />
<line x1="300" y1="40" x2="320" y2="40" stroke="black" />
<line x1="320" y1="20" x2="320" y2="40" stroke="black" />
<line x1="320" y1="80" x2="340" y2="80" stroke="black" />
<line x1="340" y1="80" x2="360" y2="80" stroke="black" />
<line x1="360" y1="80" x2="360" y2="100" stroke="black" />
<line x1="360" y1="100" x2="360" y2="120" stroke="black" />
<line x1="360" y1="120" x2="380" y2="120" stroke="black" />
<line x1="380" y1="120" x2="400" y2="120" stroke="black" />
<line x1="400" y1="120" x2="420" y2="120" stroke="black" />
<line x1="420" y1="100" x2="420" y2="120" stroke="black" />
<line x1="420" y1="80" x2="420" y2="100" stroke="black" />
<line x1="420" y1="80" x2="440" y2="80" stroke="black" />
<line x1="420" y1="20" x2="440" y2="20" stroke="black" />
<line x1="400" y1="20" x2="420" y2="20" stroke="black" />
<line x1="380" y1="20" x2="400" y2="20" stroke="black" />
<line x1="360" y1="20" x2="380" y2="20" stroke="black" />
<line x1="340" y1="20" x2="360" y2="20" stroke="black" />
<line x1="320" y1="20" x2="340" y2="20" stroke="black" />
<line x1="440" y1="80" x2="460" y2="80" stroke="black" />
<line x1="460" y1="80" x2="480" y2="80" stroke="black" />
<line x1="480" y1="80" x2="480" y2="100" stroke="black" />
<line x1="480" y1="100" x2="500" y2="100" stroke="black" />
<line x1="460" y1="40" x2="480" y2="40" stroke="black" />
<line x1="460" y1="20" x2="460" y2="40" stroke="black" />
<line x1="440" y1="20" x2="460" y2="20" stroke="black" />
<line x1="480" y1="40" x2="500" y2="40" stroke="black" />
<line x1="500" y1="40" x2="520" y2="40" stroke="black" />
<line x1="520" y1="40" x2="520" y2="60" stroke="black" />
<line x1="520" y1="60" x2="540" y2="60" stroke="black" />
<line x1="540" y1="60" x2="560" y2="60" stroke="black" />
<line x1="560" y1="60" x2="580" y2="60" stroke="black" />
<line x1="580" y1="60" x2="580" y2="80" stroke="black" />
<line x1="500" y1="100" x2="520" y2="100" stroke="black" />
<line x1="520" y1="100" x2="540" y2="100" stroke="black" />
<line x1="540" y1="100" x2="540" y2="120" stroke="black" />
<line x1="540" y1="120" x2="560" y2="120" stroke="black" />
<line x1="560" y1="120" x2="580" y2="120" stroke="black" />
<line x1="580" y1="120" x2="600" y2="120" stroke="black" />
<line x1="580" y1="80" x2="600" y2="80" stroke="black" />
<line x1="600" y1="120" x2="600" y2="140" stroke="black" />
<line x1="600" y1="80" x2="620" y2="80" stroke="black" />
<line x1="620" y1="80" x2="640" y2="80" stroke="black" />
<line x1="640" y1="80" x2="640" y2="100" stroke="black" />
<line x1="640" y1="100" x2="640" y2="120" stroke="black" />
<line x1="640" y1="120" x2="640" y2="140" stroke="black" />
<line x1="640" y1="140" x2="660" y2="140" stroke="black" />
<line x1="660" y1="140" x2="660" y2="160" stroke="black" />
<line x1="600" y1="140" x2="600" y2="160" stroke="black" />
<line x1="600" y1="160" x2="600" y2="180" stroke="black" />
<line x1="660" y1="160" x2="660" y2="180" stroke="black" />
<line x1="600" y1="180" x2="600" y2="200" stroke="black" />
<line x1="600" y1="200" x2="600" y2="220" stroke="black" />
<line x1="580" y1="220" x2="600" y2="220" stroke="black" />
<line x1="560" y1="220" x2="580" y2="220" stroke="black" />
<line x1="560" y1="220" x2="560" y2="240" stroke="black" />
<line x1="560" y1="240" x2="560" y2="260" stroke="black" />
<line x1="560" y1="260" x2="560" y2="280" stroke="black" />
<line x1="560" y1="280" x2="580" y2="280" stroke="black" />
<line x1="580" y1="280" x2="600" y2="280" stroke="black" />
<line x1="660" y1="260" x2="660" y2="280" stroke="black" />
<line x1="660" y1="240" x2="660" y2="260" stroke="black" />
<line x1="660" y1="220" x2="660" y2="240" stroke="black" />
<line x1="660" y1="200" x2="660" y2="220" stroke="black" />
<line x1="660" y1="180" x2="660" y2="200" stroke="black" />
<line x1="660" y1="280" x2="660" y2="300" stroke="black" />
<line x1="640" y1="300" x2="660" y2="300" stroke="black" />
<line x1="600" y1="280" x2="600" y2="300" stroke="black" />
<line x1="640" y1="300" x2="640" y2="320" stroke="black" />
<line x1="600" y1="300" x2="600" y2="320" stroke="black" />
<line x1="600" y1="320" x2="600" y2="340" stroke="black" />
<line x1="600" y1="340" x2="600" y2="360" stroke="black" />
<line x1="640" y1="340" x2="640" y2="360" stroke="black" />
<line x1="640" y1="320" x2="640" y2="340" stroke="black" />
<line x1="580" y1="360" x2="600" y2="360" stroke="black" />
<line x1="580" y1="360" x2="580" y2="380" stroke="black" />
<line x1="560" y1="380" x2="580" y2="380" stroke="black" />
<line x1="540" y1="380" x2="560" y2="380" stroke="black" />
<line x1="540" y1="380" x2="540" y2="400" stroke="black" />
<line x1="640" y1="360" x2="640" y2="380" stroke="black" />
<line x1="640" y1="380" x2="640" y2="400" stroke="black" />
<line x1="640" y1="400" x2="640" y2="420" stroke="black" />
<line x1="600" y1="420" x2="620" y2="420" stroke="black" />
<line x1="620" y1="420" x2="640" y2="420" stroke="black" />
<line x1="600" y1="420" x2="600" y2="440" stroke="black" />
<line x1="580" y1="440" x2="600" y2="440" stroke="black" />
<line x1="560" y1="440" x2="580" y2="440" stroke="black" />
<line x1="520" y1="400" x2="540" y2="400" stroke="black" />
<line x1="500" y1="400" x2="520" y2="400" stroke="black" />
<line x1="480" y1="400" x2="500" y2="400" stroke="black" />
<line x1="460" y1="400" x2="480" y2="400" stroke="black" />
<line x1="460" y1="400" x2="460" y2="420" stroke="black" />
<line x1="440" y1="420" x2="460" y2="420" stroke="black" />
<line x1="440" y1="460" x2="460" y2="460" stroke="black" />
<line x1="460" y1="460" x2="480" y2="460" stroke="black" />
<line x1="480" y1="460" x2="500" y2="460" stroke="black" />
<line x1="500" y1="440" x2="500" y2="460" stroke="black" />
<line x1="500" y1="440" x2="520" y2="440" stroke="black" />
<line x1="520" y1="440" x2="540" y2="440" stroke="black" />
<line x1="540" y1="440" x2="560" y2="440" stroke="black" />
<line x1="360" y1="400" x2="380" y2="400" stroke="black" />
<line x1="380" y1="380" x2="380" y2="400" stroke="black" />
<line x1="360" y1="380" x2="380" y2="380" stroke="black" />
<line x1="400" y1="380" x2="420" y2="380" stroke="black" />
<line x1="400" y1="380" x2="400" y2="400" stroke="black" />
<line x1="400" y1="400" x2="420" y2="400" stroke="black" />
<line x1="360" y1="360" x2="360" y2="380" stroke="black" />
<line x1="360" y1="340" x2="360" y2="360" stroke="black" />
<line x1="360" y1="320" x2="360" y2="340" stroke="black" />
<line x1="420" y1="320" x2="420" y2="340" stroke="black" />
<line x1="420" y1="340" x2="420" y2="360" stroke="black" />
<line x1="420" y1="360" x2="420" y2="380" stroke="black" />
<line x1="360" y1="300" x2="360" y2="320" stroke="black" />
<line x1="420" y1="300" x2="420" y2="320" stroke="black" />
<line x1="340" y1="300" x2="360" y2="300" stroke="black" />
<line x1="340" y1="280" x2="340" y2="300" stroke="black" />
<line x1="420" y1="300" x2="440" y2="300" stroke="black" />
<line x1="440" y1="280" x2="440" y2="300" stroke="black" />
<line x1="320" y1="280" x2="340" y2="280" stroke="black" />
<line x1="300" y1="280" x2="320" y2="280" stroke="black" />
<line x1="300" y1="260" x2="300" y2="280" stroke="black" />
<line x1="300" y1="240" x2="300" y2="260" stroke="black" />
<line x1="300" y1="220" x2="300" y2="240" stroke="black" />
<line x1="300" y1="220" x2="320" y2="220" stroke="black" />
<line x1="320" y1="220" x2="340" y2="220" stroke="black" />
<line x1="340" y1="200" x2="340" y2="220" stroke="black" />
<line x1="340" y1="200" x2="360" y2="200" stroke="black" />
<line x1="360" y1="200" x2="380" y2="200" stroke="black" />
<line x1="440" y1="280" x2="460" y2="280" stroke="black" />
<line x1="460" y1="280" x2="480" y2="280" stroke="black" />
<line x1="480" y1="260" x2="480" y2="280" stroke="black" />
<line x1="480" y1="240" x2="480" y2="260" stroke="black" />
<line x1="480" y1="220" x2="480" y2="240" stroke="black" />
<line x1="460" y1="220" x2="480" y2="220" stroke="black" />
<line x1="440" y1="220" x2="460" y2="220" stroke="black" />
<line x1="440" y1="200" x2="440" y2="220" stroke="black" />
<line x1="420" y1="200" x2="440" y2="200" stroke="black" />
<line x1="400" y1="200" x2="420" y2="200" stroke="black" />
<line x1="380" y1="200" x2="400" y2="200" stroke="black" />
<line x1="340" y1="240" x2="340" y2="260" stroke="black" />
<line x1="340" y1="240" x2="360" y2="240" stroke="black" />
<line x1="360" y1="240" x2="360" y2="260" stroke="black" />
<line x1="340" y1="260" x2="360" y2="260" stroke="black" />
<line x1="420" y1="260" x2="440" y2="260" stroke="black" />
<line x1="420" y1="240" x2="420" y2="260" stroke="black" />
<line x1="420" y1="240" x2="440" y2="240" stroke="black" />
<line x1="440" y1="240" x2="440" y2="260" stroke="black" />
<text x="390" y="110" text-anchor="middle" dominant-baseline="central">J</text>
<text x="210" y="250" text-anchor="middle" dominant-baseline="central">K</text>
<text x="570" y="250" text-anchor="middle" dominant-baseline="central">L</text>
<text x="390" y="550" text-anchor="middle" dominant-baseline="central">15</text>
<text x="390" y="250" text-anchor="middle" dominant-baseline="central">16</text>
</svg>
