<svg viewBox="0 0 140 120" xmlns="http://www.w3.org/2000/svg">
<defs>
	<marker id="arrow" viewBox="0 0 10 10" refX="5" refY="5" markerWidth="6" markerHeight="6" orient="auto-start-reverse">
		<path d="M 0 0 L 10 5 L 0 10 z" />
	</marker>
</defs>
<text x="140" y="120" text-anchor="end">Past B1-2</text>
<line x1="20" y1="0" x2="120" y2="0" stroke="black" />
<line x1="20" y1="0" x2="20" y2="20" stroke="black" />
<line x1="120" y1="0" x2="120" y2="20" stroke="black" />
<line x1="0" y1="20" x2="20" y2="20" stroke="black" />
<line x1="0" y1="20" x2="0" y2="80" stroke="black" />
<line x1="120" y1="20" x2="140" y2="20" stroke="black" />
<line x1="140" y1="20" x2="140" y2="80" stroke="black" />
<line x1="0" y1="80" x2="60" y2="80" stroke="black" />
<line x1="80" y1="80" x2="140" y2="80" stroke="black" />
<line x1="60" y1="80" x2="60" y2="100" stroke="black" />
<line x1="80" y1="80" x2="80" y2="100" stroke="black" />
<line x1="60" y1="100" x2="60" y2="120" stroke="black" />
<line x1="80" y1="100" x2="80" y2="120" stroke="black" />
<text x="50" y="10" text-anchor="middle" dominant-baseline="central">A</text>
<text x="70" y="10" text-anchor="middle" dominant-baseline="central">B</text>
<text x="90" y="10" text-anchor="middle" dominant-baseline="central">C</text>
<text x="70" y="110" text-anchor="middle" dominant-baseline="central">3</text>
</svg>
