<svg viewBox="0 0 420 720" xmlns="http://www.w3.org/2000/svg">
<defs>
	<marker id="arrow" viewBox="0 0 10 10" refX="5" refY="5" markerWidth="6" markerHeight="6" orient="auto-start-reverse">
		<path d="M 0 0 L 10 5 L 0 10 z" />
	</marker>
</defs>
<text x="420" y="720" text-anchor="end">Past 1F-1</text>
<line x1="200" y1="700" x2="200" y2="720" stroke="black" />
<line x1="220" y1="700" x2="220" y2="720" stroke="black" />
<line x1="200" y1="720" x2="220" y2="720" stroke="black" />
<line x1="160" y1="700" x2="200" y2="700" stroke="black" />
<line x1="160" y1="680" x2="160" y2="700" stroke="black" />
<line x1="220" y1="700" x2="260" y2="700" stroke="black" />
<line x1="260" y1="680" x2="260" y2="700" stroke="black" />
<line x1="260" y1="680" x2="280" y2="680" stroke="black" />
<line x1="140" y1="680" x2="160" y2="680" stroke="black" />
<line x1="140" y1="640" x2="140" y2="680" stroke="black" />
<line x1="140" y1="640" x2="180" y2="640" stroke="black" />
<line x1="180" y1="620" x2="180" y2="640" stroke="black" />
<line x1="180" y1="620" x2="200" y2="620" stroke="black" />
<line x1="240" y1="640" x2="280" y2="640" stroke="black" />
<line x1="280" y1="640" x2="280" y2="680" stroke="black" />
<line x1="240" y1="620" x2="240" y2="640" stroke="black" />
<line x1="220" y1="620" x2="240" y2="620" stroke="black" />
<line x1="200" y1="580" x2="200" y2="620" stroke="black" />
<line x1="220" y1="580" x2="220" y2="620" stroke="black" />
<line x1="160" y1="580" x2="200" y2="580" stroke="black" />
<line x1="160" y1="560" x2="160" y2="580" stroke="black" />
<line x1="160" y1="520" x2="180" y2="520" stroke="black" />
<line x1="160" y1="540" x2="180" y2="540" stroke="black" />
<line x1="160" y1="520" x2="160" y2="540" stroke="black" />
<line x1="180" y1="520" x2="180" y2="540" stroke="black" />
<line x1="100" y1="560" x2="160" y2="560" stroke="black" />
<line x1="100" y1="540" x2="100" y2="560" stroke="black" />
<line x1="20" y1="540" x2="100" y2="540" stroke="black" />
<line x1="0" y1="520" x2="20" y2="520" stroke="black" />
<line x1="20" y1="520" x2="20" y2="540" stroke="black" />
<line x1="0" y1="480" x2="0" y2="520" stroke="black" />
<line x1="0" y1="480" x2="20" y2="480" stroke="black" />
<line x1="20" y1="460" x2="20" y2="480" stroke="black" />
<line x1="20" y1="460" x2="40" y2="460" stroke="black" />
<line x1="40" y1="460" x2="40" y2="480" stroke="black" />
<line x1="40" y1="480" x2="60" y2="480" stroke="black" />
<line x1="60" y1="480" x2="60" y2="500" stroke="black" />
<line x1="60" y1="500" x2="140" y2="500" stroke="black" />
<line x1="140" y1="480" x2="140" y2="500" stroke="black" />
<line x1="140" y1="480" x2="180" y2="480" stroke="black" />
<line x1="180" y1="240" x2="180" y2="480" stroke="black" />
<line x1="220" y1="580" x2="260" y2="580" stroke="black" />
<line x1="260" y1="560" x2="260" y2="580" stroke="black" />
<line x1="240" y1="520" x2="260" y2="520" stroke="black" />
<line x1="240" y1="540" x2="260" y2="540" stroke="black" />
<line x1="240" y1="520" x2="240" y2="540" stroke="black" />
<line x1="260" y1="520" x2="260" y2="540" stroke="black" />
<line x1="260" y1="560" x2="320" y2="560" stroke="black" />
<line x1="320" y1="540" x2="320" y2="560" stroke="black" />
<line x1="320" y1="540" x2="400" y2="540" stroke="black" />
<line x1="400" y1="520" x2="400" y2="540" stroke="black" />
<line x1="400" y1="520" x2="420" y2="520" stroke="black" />
<line x1="420" y1="480" x2="420" y2="520" stroke="black" />
<line x1="400" y1="480" x2="420" y2="480" stroke="black" />
<line x1="380" y1="460" x2="380" y2="480" stroke="black" />
<line x1="380" y1="460" x2="400" y2="460" stroke="black" />
<line x1="400" y1="460" x2="400" y2="480" stroke="black" />
<line x1="360" y1="480" x2="380" y2="480" stroke="black" />
<line x1="360" y1="480" x2="360" y2="500" stroke="black" />
<line x1="280" y1="500" x2="360" y2="500" stroke="black" />
<line x1="280" y1="480" x2="280" y2="500" stroke="black" />
<line x1="240" y1="480" x2="280" y2="480" stroke="black" />
<line x1="240" y1="240" x2="240" y2="480" stroke="black" />
<line x1="160" y1="240" x2="180" y2="240" stroke="black" />
<line x1="160" y1="220" x2="160" y2="240" stroke="black" />
<line x1="120" y1="220" x2="160" y2="220" stroke="black" />
<line x1="120" y1="200" x2="120" y2="220" stroke="black" />
<line x1="80" y1="200" x2="120" y2="200" stroke="black" />
<line x1="80" y1="160" x2="80" y2="200" stroke="black" />
<line x1="80" y1="160" x2="140" y2="160" stroke="black" />
<line x1="140" y1="140" x2="140" y2="160" stroke="black" />
<line x1="140" y1="140" x2="180" y2="140" stroke="black" />
<line x1="240" y1="240" x2="260" y2="240" stroke="black" />
<line x1="260" y1="220" x2="260" y2="240" stroke="black" />
<line x1="260" y1="220" x2="300" y2="220" stroke="black" />
<line x1="300" y1="200" x2="300" y2="220" stroke="black" />
<line x1="300" y1="200" x2="340" y2="200" stroke="black" />
<line x1="340" y1="160" x2="340" y2="200" stroke="black" />
<line x1="280" y1="160" x2="340" y2="160" stroke="black" />
<line x1="280" y1="140" x2="280" y2="160" stroke="black" />
<line x1="240" y1="140" x2="280" y2="140" stroke="black" />
<line x1="240" y1="40" x2="240" y2="140" stroke="black" />
<line x1="180" y1="40" x2="180" y2="140" stroke="black" />
<line x1="180" y1="40" x2="240" y2="40" stroke="black" />
<line x1="160" y1="180" x2="180" y2="180" stroke="black" />
<line x1="160" y1="200" x2="180" y2="200" stroke="black" />
<line x1="160" y1="180" x2="160" y2="200" stroke="black" />
<line x1="180" y1="180" x2="180" y2="200" stroke="black" />
<line x1="240" y1="180" x2="260" y2="180" stroke="black" />
<line x1="240" y1="200" x2="260" y2="200" stroke="black" />
<line x1="240" y1="180" x2="240" y2="200" stroke="black" />
<line x1="260" y1="180" x2="260" y2="200" stroke="black" />
<text x="210" y="730" text-anchor="middle" dominant-baseline="central">ST</text>
<text x="30" y="470" text-anchor="middle" dominant-baseline="central">1</text>
<text x="390" y="470" text-anchor="middle" dominant-baseline="central">5</text>
<text x="210" y="90" text-anchor="middle" dominant-baseline="central">6</text>
</svg>
