<svg viewBox="0 0 120 140" xmlns="http://www.w3.org/2000/svg">
<defs>
	<marker id="arrow" viewBox="0 0 10 10" refX="5" refY="5" markerWidth="6" markerHeight="6" orient="auto-start-reverse">
		<path d="M 0 0 L 10 5 L 0 10 z" />
	</marker>
</defs>
<text x="120" y="140" text-anchor="end">Old Cave B2-2</text>
<text x="70" y="110" text-anchor="middle" dominant-baseline="central">2</text>
<text x="50" y="30" text-anchor="middle" dominant-baseline="central">J</text>
<text x="70" y="30" text-anchor="middle" dominant-baseline="central">K</text>
<line x1="20" y1="40" x2="20" y2="60" stroke="black" />
<line x1="20" y1="40" x2="40" y2="40" stroke="black" />
<line x1="40" y1="20" x2="40" y2="40" stroke="black" />
<line x1="40" y1="40" x2="60" y2="40" stroke="black" />
<line x1="60" y1="40" x2="80" y2="40" stroke="black" />
<line x1="80" y1="20" x2="80" y2="40" stroke="black" />
<line x1="80" y1="40" x2="100" y2="40" stroke="black" />
<line x1="100" y1="40" x2="100" y2="60" stroke="black" />
<line x1="100" y1="60" x2="100" y2="80" stroke="black" />
<line x1="100" y1="80" x2="100" y2="100" stroke="black" />
<line x1="80" y1="100" x2="100" y2="100" stroke="black" />
<line x1="20" y1="100" x2="40" y2="100" stroke="black" />
<line x1="20" y1="80" x2="20" y2="100" stroke="black" />
<line x1="20" y1="60" x2="20" y2="80" stroke="black" />
<line x1="40" y1="20" x2="60" y2="20" stroke="black" />
<line x1="60" y1="20" x2="80" y2="20" stroke="black" />
<line x1="60" y1="20" x2="60" y2="40" stroke="black" />
<line x1="40" y1="100" x2="60" y2="100" stroke="black" />
<line x1="60" y1="100" x2="60" y2="120" stroke="black" />
<line x1="60" y1="120" x2="80" y2="120" stroke="black" />
<line x1="80" y1="100" x2="80" y2="120" stroke="black" />
</svg>
