<svg viewBox="0 0 960 220" xmlns="http://www.w3.org/2000/svg">
<defs>
	<marker id="arrow" viewBox="0 0 10 10" refX="5" refY="5" markerWidth="6" markerHeight="6" orient="auto-start-reverse">
		<path d="M 0 0 L 10 5 L 0 10 z" />
	</marker>
</defs>
<text x="960" y="220" text-anchor="end">Spider B1-1</text>
<text x="910" y="90" text-anchor="middle" dominant-baseline="central">1</text>
<text x="510" y="130" text-anchor="middle" dominant-baseline="central">2</text>
<text x="90" y="190" text-anchor="middle" dominant-baseline="central">4</text>
<text x="470" y="170" text-anchor="middle" dominant-baseline="central">C</text>
<line x1="80" y1="200" x2="100" y2="200" stroke="black" />
<line x1="80" y1="180" x2="80" y2="200" stroke="black" />
<line x1="100" y1="180" x2="100" y2="200" stroke="black" />
<line x1="100" y1="180" x2="120" y2="180" stroke="black" />
<line x1="60" y1="180" x2="80" y2="180" stroke="black" />
<line x1="60" y1="160" x2="60" y2="180" stroke="black" />
<line x1="60" y1="140" x2="60" y2="160" stroke="black" />
<line x1="60" y1="140" x2="80" y2="140" stroke="black" />
<line x1="80" y1="140" x2="100" y2="140" stroke="black" />
<line x1="100" y1="140" x2="120" y2="140" stroke="black" />
<line x1="120" y1="140" x2="140" y2="140" stroke="black" />
<line x1="140" y1="140" x2="160" y2="140" stroke="black" />
<line x1="160" y1="140" x2="180" y2="140" stroke="black" />
<line x1="160" y1="160" x2="180" y2="160" stroke="black" />
<line x1="160" y1="160" x2="160" y2="180" stroke="black" />
<line x1="120" y1="180" x2="140" y2="180" stroke="black" />
<line x1="140" y1="180" x2="160" y2="180" stroke="black" />
<line x1="180" y1="160" x2="180" y2="180" stroke="black" />
<line x1="180" y1="180" x2="200" y2="180" stroke="black" />
<line x1="180" y1="140" x2="200" y2="140" stroke="black" />
<line x1="200" y1="140" x2="220" y2="140" stroke="black" />
<line x1="220" y1="140" x2="240" y2="140" stroke="black" />
<line x1="240" y1="140" x2="260" y2="140" stroke="black" />
<line x1="260" y1="140" x2="280" y2="140" stroke="black" />
<line x1="280" y1="140" x2="300" y2="140" stroke="black" />
<line x1="300" y1="140" x2="320" y2="140" stroke="black" />
<line x1="320" y1="140" x2="340" y2="140" stroke="black" />
<line x1="340" y1="140" x2="360" y2="140" stroke="black" />
<line x1="360" y1="140" x2="380" y2="140" stroke="black" />
<line x1="380" y1="140" x2="400" y2="140" stroke="black" />
<line x1="380" y1="160" x2="400" y2="160" stroke="black" />
<line x1="380" y1="160" x2="380" y2="180" stroke="black" />
<line x1="400" y1="160" x2="400" y2="180" stroke="black" />
<line x1="360" y1="180" x2="380" y2="180" stroke="black" />
<line x1="340" y1="180" x2="360" y2="180" stroke="black" />
<line x1="320" y1="180" x2="340" y2="180" stroke="black" />
<line x1="300" y1="180" x2="320" y2="180" stroke="black" />
<line x1="280" y1="180" x2="300" y2="180" stroke="black" />
<line x1="260" y1="180" x2="280" y2="180" stroke="black" />
<line x1="240" y1="180" x2="260" y2="180" stroke="black" />
<line x1="220" y1="180" x2="240" y2="180" stroke="black" />
<line x1="200" y1="180" x2="220" y2="180" stroke="black" />
<line x1="400" y1="140" x2="420" y2="140" stroke="black" />
<line x1="420" y1="140" x2="420" y2="160" stroke="black" />
<line x1="420" y1="160" x2="440" y2="160" stroke="black" />
<line x1="440" y1="160" x2="460" y2="160" stroke="black" />
<line x1="460" y1="160" x2="480" y2="160" stroke="black" />
<line x1="480" y1="140" x2="480" y2="160" stroke="black" />
<line x1="480" y1="160" x2="500" y2="160" stroke="black" />
<line x1="480" y1="160" x2="480" y2="180" stroke="black" />
<line x1="480" y1="140" x2="500" y2="140" stroke="black" />
<line x1="500" y1="120" x2="500" y2="140" stroke="black" />
<line x1="500" y1="120" x2="520" y2="120" stroke="black" />
<line x1="520" y1="140" x2="540" y2="140" stroke="black" />
<line x1="520" y1="120" x2="520" y2="140" stroke="black" />
<line x1="500" y1="160" x2="500" y2="180" stroke="black" />
<line x1="500" y1="180" x2="520" y2="180" stroke="black" />
<line x1="460" y1="180" x2="480" y2="180" stroke="black" />
<line x1="440" y1="180" x2="460" y2="180" stroke="black" />
<line x1="420" y1="180" x2="440" y2="180" stroke="black" />
<line x1="400" y1="180" x2="420" y2="180" stroke="black" />
<line x1="540" y1="140" x2="560" y2="140" stroke="black" />
<line x1="560" y1="120" x2="560" y2="140" stroke="black" />
<line x1="560" y1="120" x2="580" y2="120" stroke="black" />
<line x1="580" y1="100" x2="580" y2="120" stroke="black" />
<line x1="580" y1="80" x2="580" y2="100" stroke="black" />
<line x1="580" y1="80" x2="600" y2="80" stroke="black" />
<line x1="600" y1="60" x2="600" y2="80" stroke="black" />
<line x1="600" y1="60" x2="620" y2="60" stroke="black" />
<line x1="620" y1="60" x2="640" y2="60" stroke="black" />
<line x1="640" y1="60" x2="660" y2="60" stroke="black" />
<line x1="600" y1="180" x2="620" y2="180" stroke="black" />
<line x1="580" y1="180" x2="600" y2="180" stroke="black" />
<line x1="560" y1="180" x2="580" y2="180" stroke="black" />
<line x1="540" y1="180" x2="560" y2="180" stroke="black" />
<line x1="520" y1="180" x2="540" y2="180" stroke="black" />
<line x1="620" y1="160" x2="620" y2="180" stroke="black" />
<line x1="620" y1="160" x2="640" y2="160" stroke="black" />
<line x1="640" y1="140" x2="640" y2="160" stroke="black" />
<line x1="640" y1="120" x2="640" y2="140" stroke="black" />
<line x1="640" y1="120" x2="660" y2="120" stroke="black" />
<line x1="660" y1="100" x2="660" y2="120" stroke="black" />
<line x1="660" y1="100" x2="680" y2="100" stroke="black" />
<line x1="660" y1="60" x2="680" y2="60" stroke="black" />
<line x1="680" y1="100" x2="700" y2="100" stroke="black" />
<line x1="700" y1="100" x2="720" y2="100" stroke="black" />
<line x1="720" y1="100" x2="740" y2="100" stroke="black" />
<line x1="740" y1="100" x2="760" y2="100" stroke="black" />
<line x1="760" y1="100" x2="780" y2="100" stroke="black" />
<line x1="780" y1="100" x2="800" y2="100" stroke="black" />
<line x1="800" y1="100" x2="820" y2="100" stroke="black" />
<line x1="820" y1="100" x2="840" y2="100" stroke="black" />
<line x1="840" y1="80" x2="840" y2="100" stroke="black" />
<line x1="840" y1="80" x2="860" y2="80" stroke="black" />
<line x1="860" y1="80" x2="860" y2="100" stroke="black" />
<line x1="860" y1="100" x2="880" y2="100" stroke="black" />
<line x1="880" y1="100" x2="880" y2="120" stroke="black" />
<line x1="880" y1="120" x2="900" y2="120" stroke="black" />
<line x1="900" y1="120" x2="920" y2="120" stroke="black" />
<line x1="920" y1="120" x2="940" y2="120" stroke="black" />
<line x1="940" y1="100" x2="940" y2="120" stroke="black" />
<line x1="940" y1="80" x2="940" y2="100" stroke="black" />
<line x1="940" y1="60" x2="940" y2="80" stroke="black" />
<line x1="680" y1="60" x2="700" y2="60" stroke="black" />
<line x1="700" y1="60" x2="720" y2="60" stroke="black" />
<line x1="720" y1="60" x2="740" y2="60" stroke="black" />
<line x1="740" y1="60" x2="760" y2="60" stroke="black" />
<line x1="760" y1="60" x2="780" y2="60" stroke="black" />
<line x1="780" y1="60" x2="800" y2="60" stroke="black" />
<line x1="800" y1="60" x2="820" y2="60" stroke="black" />
<line x1="820" y1="60" x2="840" y2="60" stroke="black" />
<line x1="840" y1="60" x2="860" y2="60" stroke="black" />
<line x1="860" y1="60" x2="880" y2="60" stroke="black" />
<line x1="880" y1="60" x2="900" y2="60" stroke="black" />
<line x1="900" y1="60" x2="920" y2="60" stroke="black" />
<line x1="920" y1="60" x2="940" y2="60" stroke="black" />
</svg>
